<svg width="30" height="30" viewBox="0 0 30 30" fill="none" xmlns="http://www.w3.org/2000/svg">
<g id="Frame 3" clip-path="url(#clip0)">
<rect id="Rectangle 1" width="30" height="30" rx="10" fill="#F8D410"/>
<path id="()" d="M12.9278 24.4C11.7545 24.2667 10.6878 23.9733 9.72781 23.52C8.78115 23.08 7.97448 22.4733 7.30781 21.7C6.64115 20.94 6.12115 20.0133 5.74781 18.92C5.38781 17.8267 5.20781 16.5667 5.20781 15.14C5.20781 13.74 5.38781 12.4933 5.74781 11.4C6.10781 10.2933 6.61448 9.35333 7.26781 8.58C7.93448 7.79333 8.72781 7.16667 9.64781 6.7C10.5811 6.23333 11.6078 5.92 12.7278 5.76L12.9478 7.06C11.9478 7.27333 11.0678 7.57333 10.3078 7.96C9.54781 8.34667 8.90781 8.86 8.38781 9.5C7.86781 10.14 7.47448 10.92 7.20781 11.84C6.94115 12.76 6.80781 13.86 6.80781 15.14C6.80781 16.4333 6.96781 17.5533 7.28781 18.5C7.62115 19.4333 8.07448 20.22 8.64781 20.86C9.22115 21.5 9.89448 21.9933 10.6678 22.34C11.4545 22.7 12.3011 22.94 13.2078 23.06L12.9278 24.4ZM17.48 5.76C18.6533 5.89333 19.7133 6.18667 20.66 6.64C21.62 7.08 22.4333 7.68667 23.1 8.46C23.7667 9.23333 24.28 10.1667 24.64 11.26C25.0133 12.3533 25.2 13.6067 25.2 15.02C25.2 16.42 25.0133 17.6733 24.64 18.78C24.28 19.8733 23.7667 20.8067 23.1 21.58C22.4467 22.3667 21.66 22.9933 20.74 23.46C19.82 23.9267 18.8 24.24 17.68 24.4L17.46 23.1C18.46 22.8867 19.34 22.5867 20.1 22.2C20.86 21.8133 21.5 21.3 22.02 20.66C22.54 20.02 22.9333 19.24 23.2 18.32C23.4667 17.4 23.6 16.3 23.6 15.02C23.6 13.7267 23.4333 12.6133 23.1 11.68C22.78 10.7333 22.3333 9.94 21.76 9.3C21.1867 8.66 20.5067 8.16667 19.72 7.82C18.9467 7.46 18.1067 7.22 17.2 7.1L17.48 5.76Z" fill="#1D1E22"/>
</g>
<defs>
<clipPath id="clip0">
<rect width="30" height="30" fill="white"/>
</clipPath>
</defs>
</svg>
